<svg width="1440" height="510" viewBox="0 0 1440 510" fill="none" xmlns="http://www.w3.org/2000/svg">
    <path d="M1440 223.608L1435.99 188.41L1431.98 187.584L1427.97 201.095L1423.96 228.643L1419.94 212.679L1415.93 217.186L1411.92 200.792L1407.91 211.392L1403.9 200.258L1399.89 183.588L1395.88 193.246L1391.87 181.32L1387.86 177.894L1383.84 160.142L1379.83 166.8L1375.82 170.692L1371.81 165.023L1367.8 161.155L1363.79 159.103L1359.78 150.857L1355.77 172.569L1351.75 157.76L1347.74 144.87L1343.73 117.287L1339.72 121.196L1335.71 103L1331.7 125.041L1327.69 120.21L1323.68 116.489L1319.67 113.952L1315.65 139.605L1311.64 180.132L1307.63 177.621L1303.62 205.411L1299.61 215.745L1295.6 204.704L1291.59 206.107L1287.58 187.043L1283.57 193.669L1279.55 182.558L1275.54 169.138L1271.53 151.27L1267.52 178.583L1263.51 168.482L1259.5 161.632L1255.49 151.912L1251.48 162.252L1247.47 179.987L1243.45 167.213L1239.44 173.885L1235.43 177.966L1231.42 172.567L1227.41 181.82L1223.4 181.801L1219.39 190.27L1215.38 169.139L1211.36 201.12L1207.35 205.77L1203.34 213.188L1199.33 231.836L1195.32 239.573L1191.31 260.304L1187.3 284.187L1183.29 283.864L1179.28 276.369L1175.26 259.806L1171.25 270.061L1167.24 264.614L1163.23 264.206L1159.22 258.896L1155.21 260.747L1151.2 267.943L1147.19 260.623L1143.18 254.293L1139.16 237.011L1135.15 257.57L1131.14 250.403L1127.13 275.412L1123.12 277.853L1119.11 281.502L1115.1 288.547L1111.09 290.822L1107.08 290.344L1103.06 259.87L1099.05 258.215L1095.04 265.995L1091.03 278.412L1087.02 262.851L1083.01 261.371L1079 267.505L1074.99 260.522L1070.97 248.201L1066.96 265.028L1062.95 272.084L1058.94 292.978L1054.93 273.184L1050.92 276.15L1046.91 275.608L1042.9 279.839L1038.89 275.185L1034.87 280.236L1030.86 291.526L1026.85 289.944L1022.84 279.486L1018.83 270.811L1014.82 285.796L1010.81 286.646L1006.8 299.254L1002.79 299.03L998.774 290.638L994.763 302.463L990.752 295.868L986.741 290.097L982.73 294.469L978.719 291.16L974.708 287.419L970.696 306.985L966.685 319.674L962.674 325.374L958.663 334.501L954.652 340.54L950.641 330.963L946.63 318.184L942.618 331.076L938.607 338.125L934.596 359.236L930.585 395.967L926.574 397.613L922.563 404.925L918.552 421.865L914.54 425.695L910.529 401.688L906.518 390.173L902.507 411.371L898.496 404.188L894.485 398.018L890.474 392.671L886.462 423.91L882.451 408.724L878.44 405.18L874.429 390.219L870.418 388.351L866.407 374.084L862.396 372.954L858.384 362.042L854.373 370.366L850.362 366.908L846.351 381.03L842.34 389.993L838.329 401.546L834.318 390.599L830.306 393.216L826.295 378.671L822.284 396.864L818.273 390.23L814.262 425.295L810.251 433.788L806.24 449.682L802.228 438.592L798.217 429.144L794.206 428.462L790.195 412.782L786.184 417.358L782.173 397.052L778.162 402.826L774.15 385.094L770.139 384.064L766.128 380.622L762.117 370.902L758.106 370.781L754.095 366.245L750.084 370.677L746.072 386.325L742.061 383.043L738.05 398.493L734.039 386.706L730.028 382.828L726.017 372.813L722.006 361.091L717.994 333.335L713.983 320.614L709.972 334.526L705.961 341.496L701.95 342.935L697.939 321.515L693.928 328.537L689.916 322.704L685.905 317.528L681.894 318.956L677.883 300.41L673.872 297.964L669.861 298.445L665.85 301.579L661.838 288.043L657.827 273.636L653.816 280.909L649.805 279.183L645.794 303.095L641.783 330.188L637.772 331.392L633.761 324.611L629.749 321.652L625.738 310.005L621.727 312.142L617.716 320.77L613.705 303.62L609.694 298.617L605.682 312.071L601.671 308.074L597.66 327.999L593.649 324.813L589.638 315.207L585.627 312.852L581.616 306.434L577.604 305.907L573.593 309.662L569.582 307.735L565.571 329.172L561.56 350.264L557.549 344.079L553.538 345.944L549.527 341.067L545.515 343.736L541.504 339.809L537.493 356.363L533.482 360.566L529.471 371.318L525.46 368.659L521.448 360.422L517.437 345.434L513.426 354.646L509.415 360.603L505.404 367.159L501.393 376.287L497.382 377.557L493.371 382.431L489.359 365.421L485.348 354.23L481.337 360.963L477.326 358.873L473.315 359.842L469.304 349.902L465.293 333.636L461.281 339.074L457.27 328.779L453.259 327.798L449.248 320.308L445.237 318.788L441.226 321.888L437.214 344.326L433.203 371.125L429.192 347.322L425.181 351.795L421.17 340.43L417.159 345.913L413.148 341.469L409.137 384.988L405.125 384.727L401.114 411.879L397.103 419.924L393.092 399.724L389.081 395.831L385.07 387.384L381.059 392.549L377.047 399.536L373.036 386.102L369.025 385.031L365.014 378.752L361.003 380.49L356.992 380.218L352.98 377.411L348.969 371.695L344.958 376.553L340.947 372.596L336.936 372.288L332.925 367.964L328.914 376.859L324.903 391.568L320.891 397.539L316.88 400.32L312.869 400.3L308.858 392.167L304.847 395.831L300.836 400.133L296.825 401.361L292.813 414.249L288.802 402.57L284.791 392.49L280.78 394.004L276.769 394.792L272.758 391.494L268.747 394.275L264.735 398.331L260.724 408.805L256.713 411.375L252.702 406.481L248.691 400.399L244.68 398.148L240.669 412.873L236.657 411.637L232.646 413.221L228.635 413.17L224.624 425.372L220.613 425.376L216.602 435.842L212.591 446.483L208.579 447.984L204.568 467.363L200.557 460.148L196.546 446.966L192.535 454.902L188.524 476.087L184.513 479.095L180.501 489.755L176.49 508.893L172.479 509L168.468 493.909L164.457 501.512L160.446 505.396L156.435 505.231L152.423 495.501L148.412 497.775L144.401 495.917L140.39 487.388L136.379 477.976L132.368 473.515L128.357 484.589L124.346 488.766L120.334 498.734L116.323 504.888L112.312 503.337L108.301 499.936L104.29 475.333L100.279 457.83L96.2674 461.607L92.2563 455.817L88.2452 450.084L84.234 450.492L80.2229 453.814L76.2118 458.056L72.2007 464.536L68.1894 450.063L64.1783 446.895L60.1673 420.488L56.156 419.677L52.1449 412.143L48.1338 420.751L44.1225 429.769L40.1114 422.196L36.1004 418.544L32.0891 412.848L28.078 396.741L24.0669 411.061L20.0558 401.675L16.0445 409.921L12.0335 416.432L8.02242 411.713L4.01114 410.579L3.99351e-05 407.004" stroke="url(#paint0_linear)" stroke-width="1.5"/>
    <path d="M1440 121.608L1435.99 86.4104L1431.98 85.5843L1427.97 99.0946L1423.96 126.643L1419.94 110.679L1415.93 115.186L1411.92 98.7915L1407.91 109.392L1403.9 98.2575L1399.89 81.5879L1395.88 91.2456L1391.87 79.3199L1387.86 75.8943L1383.84 58.1424L1379.83 64.7995L1375.82 68.6924L1371.81 63.0231L1367.8 59.1551L1363.79 57.1026L1359.78 48.857L1355.77 70.5687L1351.75 55.7601L1347.74 42.8702L1343.73 15.2872L1339.72 19.1962L1335.71 1L1331.7 23.041L1327.69 18.2099L1323.68 14.4886L1319.67 11.9518L1315.65 37.6049L1311.64 78.1316L1307.63 75.6206L1303.62 103.411L1299.61 113.745L1295.6 102.704L1291.59 104.107L1287.58 85.0426L1283.57 91.669L1279.55 80.558L1275.54 67.1379L1271.53 49.2702L1267.52 76.5828L1263.51 66.4816L1259.5 59.6321L1255.49 49.9121L1251.48 60.2515L1247.47 77.9872L1243.45 65.2135L1239.44 71.8845L1235.43 75.9661L1231.42 70.5668L1227.41 79.8204L1223.4 79.8011L1219.39 88.2701L1215.38 67.1391L1211.36 99.1196L1207.35 103.77L1203.34 111.188L1199.33 129.836L1195.32 137.573L1191.31 158.304L1187.3 182.187L1183.29 181.864L1179.28 174.369L1175.26 157.806L1171.25 168.061L1167.24 162.614L1163.23 162.206L1159.22 156.896L1155.21 158.747L1151.2 165.943L1147.19 158.623L1143.18 152.293L1139.16 135.011L1135.15 155.57L1131.14 148.403L1127.13 173.412L1123.12 175.853L1119.11 179.502L1115.1 186.547L1111.09 188.822L1107.08 188.344L1103.06 157.87L1099.05 156.215L1095.04 163.995L1091.03 176.412L1087.02 160.851L1083.01 159.371L1079 165.505L1074.99 158.522L1070.97 146.201L1066.96 163.028L1062.95 170.084L1058.94 190.978L1054.93 171.184L1050.92 174.15L1046.91 173.608L1042.9 177.839L1038.89 173.185L1034.87 178.236L1030.86 189.526L1026.85 187.944L1022.84 177.486L1018.83 168.811L1014.82 183.796L1010.81 184.646L1006.8 197.254L1002.79 197.03L998.774 188.638L994.763 200.463L990.752 193.868L986.741 188.097L982.73 192.469L978.719 189.16L974.708 185.419L970.696 204.985L966.685 217.674L962.674 223.374L958.663 232.501L954.652 238.54L950.641 228.963L946.63 216.184L942.618 229.076L938.607 236.125L934.596 257.236L930.585 293.967L926.574 295.613L922.563 302.925L918.552 319.865L914.54 323.695L910.529 299.688L906.518 288.173L902.507 309.371L898.496 302.188L894.485 296.018L890.474 290.671L886.462 321.91L882.451 306.724L878.44 303.18L874.429 288.219L870.418 286.351L866.407 272.084L862.396 270.954L858.384 260.042L854.373 268.366L850.362 264.908L846.351 279.03L842.34 287.993L838.329 299.546L834.318 288.599L830.306 291.216L826.295 276.671L822.284 294.864L818.273 288.23L814.262 323.295L810.251 331.788L806.24 347.682L802.228 336.592L798.217 327.144L794.206 326.462L790.195 310.782L786.184 315.358L782.173 295.052L778.162 300.826L774.15 283.094L770.139 282.064L766.128 278.622L762.117 268.902L758.106 268.781L754.095 264.245L750.084 268.677L746.072 284.325L742.061 281.043L738.05 296.493L734.039 284.706L730.028 280.828L726.017 270.813L722.006 259.091L717.994 231.335L713.983 218.614L709.972 232.526L705.961 239.496L701.95 240.935L697.939 219.515L693.928 226.537L689.916 220.704L685.905 215.528L681.894 216.956L677.883 198.41L673.872 195.964L669.861 196.445L665.85 199.579L661.838 186.043L657.827 171.636L653.816 178.909L649.805 177.183L645.794 201.095L641.783 228.188L637.772 229.392L633.761 222.611L629.749 219.652L625.738 208.005L621.727 210.142L617.716 218.77L613.705 201.62L609.694 196.617L605.682 210.071L601.671 206.074L597.66 225.999L593.649 222.813L589.638 213.207L585.627 210.852L581.616 204.434L577.604 203.907L573.593 207.662L569.582 205.735L565.571 227.172L561.56 248.264L557.549 242.079L553.538 243.944L549.527 239.067L545.515 241.736L541.504 237.809L537.493 254.363L533.482 258.566L529.471 269.318L525.46 266.659L521.448 258.422L517.437 243.434L513.426 252.646L509.415 258.603L505.404 265.159L501.393 274.287L497.382 275.557L493.371 280.431L489.359 263.421L485.348 252.23L481.337 258.963L477.326 256.873L473.315 257.842L469.304 247.902L465.293 231.636L461.281 237.074L457.27 226.779L453.259 225.798L449.248 218.308L445.237 216.788L441.226 219.888L437.214 242.326L433.203 269.125L429.192 245.322L425.181 249.795L421.17 238.43L417.159 243.913L413.148 239.469L409.137 282.988L405.125 282.727L401.114 309.879L397.103 317.924L393.092 297.724L389.081 293.831L385.07 285.384L381.059 290.549L377.047 297.536L373.036 284.102L369.025 283.031L365.014 276.752L361.003 278.49L356.992 278.218L352.98 275.411L348.969 269.695L344.958 274.553L340.947 270.596L336.936 270.288L332.925 265.964L328.914 274.859L324.903 289.568L320.891 295.539L316.88 298.32L312.869 298.3L308.858 290.167L304.847 293.831L300.836 298.133L296.825 299.361L292.813 312.249L288.802 300.57L284.791 290.49L280.78 292.004L276.769 292.792L272.758 289.494L268.747 292.275L264.735 296.331L260.724 306.805L256.713 309.375L252.702 304.481L248.691 298.399L244.68 296.148L240.669 310.873L236.657 309.637L232.646 311.221L228.635 311.17L224.624 323.372L220.613 323.376L216.602 333.842L212.591 344.483L208.579 345.984L204.568 365.363L200.557 358.148L196.546 344.966L192.535 352.902L188.524 374.087L184.513 377.095L180.501 387.755L176.49 406.893L172.479 407L168.468 391.909L164.457 399.512L160.446 403.396L156.435 403.231L152.423 393.501L148.412 395.775L144.401 393.917L140.39 385.388L136.379 375.976L132.368 371.515L128.357 382.589L124.346 386.766L120.334 396.734L116.323 402.888L112.312 401.337L108.301 397.936L104.29 373.333L100.279 355.83L96.2674 359.607L92.2563 353.817L88.2452 348.084L84.234 348.492L80.2229 351.814L76.2118 356.056L72.2007 362.536L68.1894 348.063L64.1783 344.895L60.1673 318.488L56.156 317.677L52.1449 310.143L48.1338 318.751L44.1225 327.769L40.1114 320.196L36.1004 316.544L32.0891 310.848L28.078 294.741L24.0669 309.061L20.0558 299.675L16.0445 307.921L12.0335 314.432L8.02242 309.713L4.01114 308.579L3.99351e-05 305.004" stroke="url(#paint1_linear)" stroke-width="1.5"/>
    <defs>
        <linearGradient id="paint0_linear" x1="720" y1="509" x2="720" y2="114.102" gradientUnits="userSpaceOnUse">
            <stop stop-color="#40B4C5"/>
            <stop offset="1" stop-color="#EE2B69"/>
        </linearGradient>
        <linearGradient id="paint1_linear" x1="720" y1="407" x2="720" y2="12.1015" gradientUnits="userSpaceOnUse">
            <stop stop-color="#40B4C5"/>
            <stop offset="1" stop-color="#EE2B69"/>
        </linearGradient>
    </defs>
</svg>
