<svg width="272" height="54" viewBox="0 0 272 54" fill="none" xmlns="http://www.w3.org/2000/svg">
    <circle cx="2.5" cy="26.5" r="2.5" fill="#2F2F2F"/>
    <path d="M122.371 40.1813L122.33 10.2217L127.094 25.1852L127.04 25.0148L127.577 35.2036L122.371 40.1813Z" fill="#CC003E"/>
    <path d="M155.068 29.4255L152.755 40.3343L147.701 30.0424L155.068 29.4255Z" fill="#F1054C"/>
    <path d="M155.068 29.4255L152.755 40.3343L147.701 30.0424L155.068 29.4255Z" fill="#F1054C"/>
    <path d="M155.068 29.4255L152.755 40.3343L147.701 30.0424L155.068 29.4255Z" fill="#F1054C"/>
    <path d="M155.068 29.4255L152.755 40.3343L147.701 30.0424L155.068 29.4255Z" fill="#F1054C"/>
    <path d="M132.942 15.2014L125.789 27.4526L122.331 10.2212L132.942 15.2014Z" fill="#FF3371"/>
    <path d="M132.942 15.2014L125.789 27.4526L122.331 10.2212L132.942 15.2014Z" fill="#FF3371"/>
    <path d="M132.942 15.2014L125.789 27.4526L122.331 10.2212L132.942 15.2014Z" fill="#FF3371"/>
    <path d="M132.942 15.2014L125.789 27.4526L122.331 10.2212L132.942 15.2014Z" fill="#FF3371"/>
    <path d="M132.941 15.2012L138.919 23.985L125.788 27.4527L132.941 15.2012Z" fill="#FE94B4"/>
    <path d="M132.941 15.2012L138.919 23.985L125.788 27.4527L132.941 15.2012Z" fill="#FE94B4"/>
    <path d="M132.941 15.2012L138.919 23.985L125.788 27.4527L132.941 15.2012Z" fill="#FE94B4"/>
    <path d="M132.941 15.2012L138.919 23.985L125.788 27.4527L132.941 15.2012Z" fill="#FE94B4"/>
    <path d="M133.446 7.93322L132.941 15.2012L122.331 10.221L133.446 7.93322Z" fill="#FFD3E1"/>
    <path d="M133.446 7.93322L132.941 15.2012L122.331 10.221L133.446 7.93322Z" fill="#FFD3E1"/>
    <path d="M133.446 7.93322L132.941 15.2012L122.331 10.221L133.446 7.93322Z" fill="#FFD3E1"/>
    <path d="M133.446 7.93322L132.941 15.2012L122.331 10.221L133.446 7.93322Z" fill="#FFD3E1"/>
    <path d="M151.677 38.147L152.758 40.3342L122.374 40.1813L127.58 35.2038L137.206 36.0651L151.677 38.147Z" fill="#FFB0C8"/>
    <path d="M151.677 38.147L152.758 40.3342L122.374 40.1813L127.58 35.2038L137.206 36.0651L151.677 38.147Z" fill="#FFB0C8"/>
    <path d="M151.677 38.147L152.758 40.3342L122.374 40.1813L127.58 35.2038L137.206 36.0651L151.677 38.147Z" fill="#FFB0C8"/>
    <path d="M151.677 38.147L152.758 40.3342L122.374 40.1813L127.58 35.2038L137.206 36.0651L151.677 38.147Z" fill="#FFB0C8"/>
    <path d="M141.875 10.5113L152.751 21.2958L155.068 29.4254L147.7 30.0423L138.918 23.9851L132.94 15.2011L133.445 7.93313L141.875 10.5113Z" fill="#FF145B"/>
    <path d="M141.875 10.5113L152.751 21.2958L155.068 29.4254L147.7 30.0423L138.918 23.9851L132.94 15.2011L133.445 7.93313L141.875 10.5113Z" fill="#FF145B"/>
    <path d="M141.875 10.5113L152.751 21.2958L155.068 29.4254L147.7 30.0423L138.918 23.9851L132.94 15.2011L133.445 7.93313L141.875 10.5113Z" fill="#FF145B"/>
    <path d="M141.875 10.5113L152.751 21.2958L155.068 29.4254L147.7 30.0423L138.918 23.9851L132.94 15.2011L133.445 7.93313L141.875 10.5113Z" fill="#FF145B"/>
    <path d="M138.92 23.9852L147.701 30.0422L135.38 37.0754L138.92 23.9852Z" fill="#FFD3E1"/>
    <path d="M138.92 23.9852L147.701 30.0422L135.38 37.0754L138.92 23.9852Z" fill="#FFD3E1"/>
    <path d="M138.92 23.9852L147.701 30.0422L135.38 37.0754L138.92 23.9852Z" fill="#FFD3E1"/>
    <path d="M138.92 23.9852L147.701 30.0422L135.38 37.0754L138.92 23.9852Z" fill="#FFD3E1"/>
    <path d="M147.702 30.0423L152.756 40.3338L135.38 37.0751L147.702 30.0423Z" fill="#FF3371"/>
    <path d="M147.702 30.0423L152.756 40.3338L135.38 37.0751L147.702 30.0423Z" fill="#FF3371"/>
    <path d="M147.702 30.0423L152.756 40.3338L135.38 37.0751L147.702 30.0423Z" fill="#FF3371"/>
    <path d="M147.702 30.0423L152.756 40.3338L135.38 37.0751L147.702 30.0423Z" fill="#FF3371"/>
    <path d="M138.922 23.9855L135.383 37.0757L132.545 30.4392L138.922 23.9855Z" fill="#F1054C"/>
    <path d="M138.922 23.9855L135.383 37.0757L132.545 30.4392L138.922 23.9855Z" fill="#F1054C"/>
    <path d="M138.922 23.9855L135.383 37.0757L132.545 30.4392L138.922 23.9855Z" fill="#F1054C"/>
    <path d="M138.922 23.9855L135.383 37.0757L132.545 30.4392L138.922 23.9855Z" fill="#F1054C"/>
    <path d="M132.546 30.4389L135.383 37.0754L127.581 35.2039L132.546 30.4389Z" fill="#98002E"/>
    <path d="M132.546 30.4389L135.383 37.0754L127.581 35.2039L132.546 30.4389Z" fill="#98002E"/>
    <path d="M132.546 30.4389L135.383 37.0754L127.581 35.2039L132.546 30.4389Z" fill="#98002E"/>
    <path d="M132.546 30.4389L135.383 37.0754L127.581 35.2039L132.546 30.4389Z" fill="#98002E"/>
    <path d="M125.791 27.4532L132.545 30.439L127.58 35.204L125.791 27.4532Z" fill="#E93B70"/>
    <path d="M125.791 27.4532L132.545 30.439L127.58 35.204L125.791 27.4532Z" fill="#E93B70"/>
    <path d="M125.791 27.4532L132.545 30.439L127.58 35.204L125.791 27.4532Z" fill="#E93B70"/>
    <path d="M125.791 27.4532L132.545 30.439L127.58 35.204L125.791 27.4532Z" fill="#E93B70"/>
    <path d="M124.61 28.3435L126.655 36.086L122.372 40.1817L124.61 28.3435Z" fill="#FF719C"/>
    <path d="M124.61 28.3435L126.655 36.086L122.372 40.1817L124.61 28.3435Z" fill="#FF719C"/>
    <path d="M124.61 28.3435L126.655 36.086L122.372 40.1817L124.61 28.3435Z" fill="#FF719C"/>
    <path d="M124.61 28.3435L126.655 36.086L122.372 40.1817L124.61 28.3435Z" fill="#FF719C"/>
    <path d="M126.656 36.0862L134.245 37.9659L122.373 40.1819L126.656 36.0862Z" fill="#F1054C"/>
    <path d="M126.656 36.0862L134.245 37.9659L122.373 40.1819L126.656 36.0862Z" fill="#F1054C"/>
    <path d="M126.656 36.0862L134.245 37.9659L122.373 40.1819L126.656 36.0862Z" fill="#F1054C"/>
    <path d="M126.656 36.0862L134.245 37.9659L122.373 40.1819L126.656 36.0862Z" fill="#F1054C"/>
    <path d="M138.92 23.9853L132.543 30.439L125.789 27.4531L138.92 23.9853Z" fill="#FF719C"/>
    <path d="M138.92 23.9853L132.543 30.439L125.789 27.4531L138.92 23.9853Z" fill="#FF719C"/>
    <path d="M138.92 23.9853L132.543 30.439L125.789 27.4531L138.92 23.9853Z" fill="#FF719C"/>
    <path d="M138.92 23.9853L132.543 30.439L125.789 27.4531L138.92 23.9853Z" fill="#FF719C"/>
    <circle cx="78" cy="25" r="10" fill="#2F2F2F"/>
    <circle cx="33" cy="26" r="5" fill="#2F2F2F"/>
    <circle cx="192" cy="25" r="10" fill="#2F2F2F"/>
    <circle cx="237" cy="26" r="5" fill="#2F2F2F"/>
    <circle cx="269.5" cy="26.5" r="2.5" fill="#2F2F2F"/>
</svg>
