<svg width="371" height="686" viewBox="0 0 371 686" fill="none" xmlns="http://www.w3.org/2000/svg">
    <g opacity="0.35">
        <path d="M159.939 489.131L-122.954 439.651L42.5718 435.178L42.5808 435.178L42.5897 435.177L121.591 431.601L159.939 489.131Z" stroke="url(#paint0_linear)" stroke-width="2"/>
        <path d="M113.853 151.015L213.299 191.161L107.378 221.895L113.853 151.015Z" stroke="url(#paint1_linear)" stroke-width="2"/>
        <path d="M-65.3254 344.452L40.0184 433.804L-131.024 437.864L-65.3254 344.452Z" stroke="url(#paint2_linear)" stroke-width="2"/>
        <path d="M-63.662 343.244L30.4768 300.806L41.48 432.421L-63.662 343.244Z" stroke="url(#paint3_linear)" stroke-width="2"/>
        <path d="M154.521 357.15L154.529 357.131L154.537 357.112L213.44 201.858L161.519 487.9L123.233 430.461L154.521 357.15Z" stroke="url(#paint4_linear)" stroke-width="2"/>
        <path d="M-134.738 324.728L-95.3855 247.451L29.2815 159.27L111.878 150.704L105.29 222.826L30.7733 298.477L-65.6129 341.928L-134.738 324.728Z" stroke="url(#paint5_linear)" stroke-width="2"/>
        <path d="M33.0618 299.008L105.85 225.11L152.336 354.995L33.0618 299.008Z" stroke="url(#paint6_linear)" stroke-width="2"/>
        <path d="M107.556 223.94L214.734 192.84L154.112 354.03L107.556 223.94Z" stroke="url(#paint7_linear)" stroke-width="2"/>
        <path d="M84.0274 372.792L32.8633 300.563L152.567 356.751L84.0274 372.792Z" stroke="url(#paint8_linear)"/>
        <path d="M86.2697 374.339L151.528 359.066L121.824 427.462L86.2697 374.339Z" stroke="url(#paint9_linear)" stroke-width="3"/>
        <path d="M43.6558 434.191L83.8173 374.262L121.199 430.114L43.6558 434.191Z" stroke="url(#paint10_linear)"/>
        <path d="M129.183 441.185L49.3994 447.897L161.753 488.775" stroke="url(#paint11_linear)" stroke-width="2"/>
        <path d="M129.289 440.597L160.88 369.654L160.138 488.494" stroke="url(#paint12_linear)" stroke-width="2"/>
        <path d="M82.0017 373.38L43.8126 430.365L33.3002 304.628L82.0017 373.38Z" stroke="url(#paint13_linear)" stroke-width="3"/>
    </g>
    <defs>
        <linearGradient id="paint0_linear" x1="137.719" y1="528.573" x2="-95.0632" y2="379.648" gradientUnits="userSpaceOnUse">
            <stop stop-color="#27C8D2"/>
            <stop offset="1" stop-color="#F92263"/>
        </linearGradient>
        <linearGradient id="paint1_linear" x1="107.271" y1="155.745" x2="183.672" y2="226.584" gradientUnits="userSpaceOnUse">
            <stop stop-color="#27C8D2"/>
            <stop offset="1" stop-color="#F92263"/>
        </linearGradient>
        <linearGradient id="paint2_linear" x1="-102.135" y1="382.481" x2="1.79365" y2="478.844" gradientUnits="userSpaceOnUse">
            <stop stop-color="#27C8D2"/>
            <stop offset="1" stop-color="#F92263"/>
        </linearGradient>
        <linearGradient id="paint3_linear" x1="-66.497" y1="348.449" x2="54.2781" y2="370.129" gradientUnits="userSpaceOnUse">
            <stop stop-color="#27C8D2"/>
            <stop offset="1" stop-color="#F92263"/>
        </linearGradient>
        <linearGradient id="paint4_linear" x1="139.787" y1="332.042" x2="189.506" y2="340.967" gradientUnits="userSpaceOnUse">
            <stop stop-color="#27C8D2"/>
            <stop offset="1" stop-color="#F92263"/>
        </linearGradient>
        <linearGradient id="paint5_linear" x1="-117.449" y1="220.938" x2="99.6759" y2="259.914" gradientUnits="userSpaceOnUse">
            <stop stop-color="#27C8D2"/>
            <stop offset="1" stop-color="#F92263"/>
        </linearGradient>
        <linearGradient id="paint6_linear" x1="36.0453" y1="273.201" x2="164.963" y2="296.343" gradientUnits="userSpaceOnUse">
            <stop stop-color="#27C8D2"/>
            <stop offset="1" stop-color="#F92263"/>
        </linearGradient>
        <linearGradient id="paint7_linear" x1="118.303" y1="210.279" x2="210.656" y2="295.909" gradientUnits="userSpaceOnUse">
            <stop stop-color="#27C8D2"/>
            <stop offset="1" stop-color="#F92263"/>
        </linearGradient>
        <linearGradient id="paint8_linear" x1="40.0776" y1="289.899" x2="134.795" y2="377.721" gradientUnits="userSpaceOnUse">
            <stop stop-color="#27C8D2"/>
            <stop offset="1" stop-color="#F92263"/>
        </linearGradient>
        <linearGradient id="paint9_linear" x1="99.2643" y1="356.702" x2="148.373" y2="402.235" gradientUnits="userSpaceOnUse">
            <stop stop-color="#27C8D2"/>
            <stop offset="1" stop-color="#F92263"/>
        </linearGradient>
        <linearGradient id="paint10_linear" x1="59.0639" y1="400.063" x2="108.173" y2="445.596" gradientUnits="userSpaceOnUse">
            <stop stop-color="#27C8D2"/>
            <stop offset="1" stop-color="#F92263"/>
        </linearGradient>
        <linearGradient id="paint11_linear" x1="69.773" y1="425.924" x2="151.6" y2="501.793" gradientUnits="userSpaceOnUse">
            <stop stop-color="#27C8D2"/>
            <stop offset="1" stop-color="#F92263"/>
        </linearGradient>
        <linearGradient id="paint12_linear" x1="131.625" y1="401.205" x2="191.739" y2="456.942" gradientUnits="userSpaceOnUse">
            <stop stop-color="#27C8D2"/>
            <stop offset="1" stop-color="#F92263"/>
        </linearGradient>
        <linearGradient id="paint13_linear" x1="0.697714" y1="332.372" x2="74.3114" y2="400.626" gradientUnits="userSpaceOnUse">
            <stop stop-color="#27C8D2"/>
            <stop offset="1" stop-color="#F92263"/>
        </linearGradient>
    </defs>
</svg>
