<svg width="403" height="635" viewBox="0 0 403 635" fill="none" xmlns="http://www.w3.org/2000/svg">
    <path d="M241.367 467.488L191.107 184.733L251.924 338.746L251.927 338.755L251.931 338.763L282.311 411.776L241.367 467.488Z" stroke="url(#paint0_linear)" stroke-width="2"/>
    <path d="M300.276 206.327L252.342 335.878L190.027 176.539L300.276 206.327Z" stroke="url(#paint1_linear)" stroke-width="2"/>
    <path d="M301.979 207.477L374.055 281.424L254.141 336.778L301.979 207.477Z" stroke="url(#paint2_linear)" stroke-width="2"/>
    <path d="M293.086 134.626L300.442 204.298L191.531 174.873L293.086 134.626Z" stroke="url(#paint3_linear)" stroke-width="2"/>
    <path d="M363.536 417.258L363.556 417.259L363.577 417.259L529.614 419.51L243.065 468.553L283.945 412.93L363.536 417.258Z" stroke="url(#paint4_linear)" stroke-width="2"/>
    <path d="M295.07 134.354L381.146 144.903L506.648 231.892L542.946 306.578L472.921 325.054L376.345 280.906L302.549 205.193L295.07 134.354Z" stroke="url(#paint5_linear)" stroke-width="2"/>
    <path d="M376.63 283.237L470.966 326.361L364.814 414.467L376.63 283.237Z" stroke="url(#paint6_linear)" stroke-width="2"/>
    <path d="M472.649 327.564L538.531 417.642L366.328 415.806L472.649 327.564Z" stroke="url(#paint7_linear)" stroke-width="2"/>
    <path d="M324.727 356.365L375.101 283.583L363.243 415.285L324.727 356.365Z" stroke="url(#paint8_linear)"/>
    <path d="M324.04 359.001L360.712 415.1L286.281 410.58L324.04 359.001Z" stroke="url(#paint9_linear)" stroke-width="3"/>
    <path d="M253.223 339.427L323.274 356.67L283.575 410.899L253.223 339.427Z" stroke="url(#paint10_linear)"/>
    <path d="M275.903 422.189L242.308 349.513L242.322 469.071" stroke="url(#paint11_linear)" stroke-width="2"/>
    <path d="M276.491 422.088L353.961 427.51L242.034 467.458" stroke="url(#paint12_linear)" stroke-width="2"/>
    <path d="M323.481 354.663L256.872 338.267L371.43 285.384L323.481 354.663Z" stroke="url(#paint13_linear)" stroke-width="3"/>
    <defs>
        <linearGradient id="paint0_linear" x1="196.704" y1="460.098" x2="257.031" y2="190.419" gradientUnits="userSpaceOnUse">
            <stop stop-color="#27C8D2"/>
            <stop offset="1" stop-color="#F92263"/>
        </linearGradient>
        <linearGradient id="paint1_linear" x1="251.95" y1="184.744" x2="196.945" y2="315.362" gradientUnits="userSpaceOnUse">
            <stop stop-color="#27C8D2"/>
            <stop offset="1" stop-color="#F92263"/>
        </linearGradient>
        <linearGradient id="paint2_linear" x1="296.119" y1="206.593" x2="317.054" y2="327.499" gradientUnits="userSpaceOnUse">
            <stop stop-color="#27C8D2"/>
            <stop offset="1" stop-color="#F92263"/>
        </linearGradient>
        <linearGradient id="paint3_linear" x1="239.172" y1="142.694" x2="251.572" y2="214.305" gradientUnits="userSpaceOnUse">
            <stop stop-color="#27C8D2"/>
            <stop offset="1" stop-color="#F92263"/>
        </linearGradient>
        <linearGradient id="paint4_linear" x1="382.09" y1="394.824" x2="390.709" y2="444.598" gradientUnits="userSpaceOnUse">
            <stop stop-color="#27C8D2"/>
            <stop offset="1" stop-color="#F92263"/>
        </linearGradient>
        <linearGradient id="paint5_linear" x1="398.513" y1="115.103" x2="436.149" y2="332.464" gradientUnits="userSpaceOnUse">
            <stop stop-color="#27C8D2"/>
            <stop offset="1" stop-color="#F92263"/>
        </linearGradient>
        <linearGradient id="paint6_linear" x1="401.901" y1="277.214" x2="424.247" y2="406.272" gradientUnits="userSpaceOnUse">
            <stop stop-color="#27C8D2"/>
            <stop offset="1" stop-color="#F92263"/>
        </linearGradient>
        <linearGradient id="paint7_linear" x1="489.161" y1="332.991" x2="440.283" y2="449.061" gradientUnits="userSpaceOnUse">
            <stop stop-color="#27C8D2"/>
            <stop offset="1" stop-color="#F92263"/>
        </linearGradient>
        <linearGradient id="paint8_linear" x1="387.589" y1="286.715" x2="337.459" y2="405.757" gradientUnits="userSpaceOnUse">
            <stop stop-color="#27C8D2"/>
            <stop offset="1" stop-color="#F92263"/>
        </linearGradient>
        <linearGradient id="paint9_linear" x1="345.058" y1="365.18" x2="319.067" y2="426.9" gradientUnits="userSpaceOnUse">
            <stop stop-color="#27C8D2"/>
            <stop offset="1" stop-color="#F92263"/>
        </linearGradient>
        <linearGradient id="paint10_linear" x1="290.563" y1="342.234" x2="264.572" y2="403.954" gradientUnits="userSpaceOnUse">
            <stop stop-color="#27C8D2"/>
            <stop offset="1" stop-color="#F92263"/>
        </linearGradient>
        <linearGradient id="paint11_linear" x1="269.924" y1="361.142" x2="226.617" y2="463.983" gradientUnits="userSpaceOnUse">
            <stop stop-color="#27C8D2"/>
            <stop offset="1" stop-color="#F92263"/>
        </linearGradient>
        <linearGradient id="paint12_linear" x1="314.307" y1="410.811" x2="282.491" y2="486.362" gradientUnits="userSpaceOnUse">
            <stop stop-color="#27C8D2"/>
            <stop offset="1" stop-color="#F92263"/>
        </linearGradient>
        <linearGradient id="paint13_linear" x1="334.209" y1="264.237" x2="295.248" y2="356.755" gradientUnits="userSpaceOnUse">
            <stop stop-color="#27C8D2"/>
            <stop offset="1" stop-color="#F92263"/>
        </linearGradient>
    </defs>
</svg>
